<svg width="77" height="66" viewBox="0 0 77 66" fill="none" xmlns="http://www.w3.org/2000/svg">
<path d="M38.3654 65.3691C33.4154 65.3691 28.4654 65.2291 23.5254 65.3691C19.1754 65.5291 16.5254 63.3691 14.7054 59.7491C13.4354 57.2491 13.0454 54.7491 14.3254 52.1391C14.6231 51.4574 15.0611 50.8459 15.6107 50.3446C16.1603 49.8432 16.8093 49.4631 17.5154 49.2291C18.2054 49.0091 18.4454 48.7291 18.4054 48.0191C18.3231 45.9533 18.7309 43.8972 19.5954 42.0191C19.7254 41.6992 19.9354 41.4891 19.5154 41.1191C16.8672 38.5979 14.9407 35.4148 13.9354 31.8992C13.7554 31.3492 13.5854 31.1291 12.9354 31.0591C4.93543 30.1891 0.155433 22.4891 0.935433 15.3091C1.57543 9.53914 4.18544 4.96916 9.37544 2.14916C14.3754 -0.570845 21.4554 0.059155 25.3754 4.28916C25.7554 4.70916 26.0054 4.58914 26.3754 4.36914C34.3754 -0.160859 42.4554 -0.0208492 50.5254 4.26915C50.9954 4.51915 51.3854 4.85915 51.9254 4.26915C56.5054 -0.880849 66.6054 -0.830852 72.2854 5.82915C77.9654 12.4891 77.4854 22.3791 71.3954 27.9191C69.2539 29.7318 66.6011 30.8328 63.8054 31.0692C63.5253 31.0689 63.2546 31.17 63.0432 31.3538C62.8318 31.5376 62.6941 31.7917 62.6554 32.0692C61.8087 35.4878 59.9513 38.5719 57.3254 40.9191C57.1957 41.0011 57.0839 41.1085 56.9966 41.2347C56.9094 41.361 56.8485 41.5036 56.8177 41.6539C56.7869 41.8042 56.7868 41.9593 56.8173 42.1096C56.8478 42.26 56.9084 42.4027 56.9954 42.5291C57.8085 44.1969 58.213 46.0342 58.1754 47.8891C58.1393 48.1699 58.2012 48.4546 58.3506 48.695C58.5 48.9355 58.7277 49.1171 58.9954 49.2092C60.6134 49.9431 61.8918 51.2647 62.5714 52.9062C63.2511 54.5478 63.2811 56.3863 62.6554 58.0491C61.1154 62.8792 57.7054 65.3792 52.6554 65.3792L38.3654 65.3691ZM70.3654 9.50916L70.0854 9.20915C68.6072 6.98287 66.3901 5.3502 63.8254 4.59915C62.4554 4.18915 61.0754 3.76915 59.6454 4.35915C57.9036 4.40693 56.2196 4.99392 54.8254 6.03916C54.3354 6.35916 54.2854 6.71915 54.7654 7.10915C57.2743 9.29811 59.3472 11.9411 60.8754 14.8992C62.661 18.6761 63.5573 22.8119 63.4954 26.9892C63.4954 27.3592 63.5654 27.6291 64.0154 27.5291C66.3154 26.9891 68.5454 26.3592 69.8254 24.0992C71.7654 22.5792 72.3954 20.3892 72.6154 18.0992C72.8954 15.2392 72.7854 12.3792 70.7554 10.0192L70.3254 9.44914L70.3654 9.50916ZM59.2954 55.1191C59.3908 54.5616 59.2827 53.9883 58.9909 53.5038C58.699 53.0192 58.2429 52.6556 57.7054 52.4791C57.1164 52.2008 56.4647 52.082 55.8153 52.1346C55.166 52.1873 54.5419 52.4095 54.0054 52.7791C52.7904 53.6243 51.8214 54.777 51.1977 56.1193C50.574 57.4616 50.3179 58.9454 50.4554 60.4191C50.5754 61.0691 50.8654 61.8192 51.8054 61.8192C52.0769 62.0189 52.3864 62.161 52.7149 62.2367C53.0434 62.3124 53.3839 62.32 53.7154 62.2592C56.5054 61.8692 59.9354 57.6391 59.2654 55.1191H59.2954ZM7.29543 23.8591C8.44543 26.0091 10.4954 26.8591 12.6354 27.5491C13.4654 27.8191 13.6354 27.4791 13.6354 26.7291C13.5853 25.3432 13.6455 23.9555 13.8154 22.5791C14.3177 19.9503 15.0988 17.3824 16.1454 14.9191C17.5815 11.8635 19.728 9.19592 22.4054 7.13915C22.8054 6.83915 22.9354 6.55915 22.4554 6.21915C21.1296 5.1813 19.5247 4.56165 17.8454 4.43915H17.6854C17.6232 4.37416 17.5404 4.33268 17.4511 4.32175C17.3618 4.31081 17.2715 4.3311 17.1954 4.37915C16.3495 4.09843 15.4419 4.06033 14.5754 4.26915C12.603 4.59521 10.7445 5.41294 9.17153 6.64685C7.59855 7.88077 6.36179 9.49109 5.57543 11.3291C4.40543 14.5791 3.91544 17.8592 5.23544 21.1792C5.68544 22.1992 6.07544 23.3391 7.26544 23.8591H7.29543ZM51.8254 41.0692C54.9054 38.6792 57.6854 36.0692 58.9654 32.1792C62.9654 20.0192 54.7054 6.84915 41.5854 4.81915C36.2055 4.02443 30.7247 5.30582 26.2548 8.40338C21.7849 11.5009 18.6605 16.1828 17.5154 21.4991C15.9254 29.0491 17.6854 35.6192 24.2554 40.3492C24.4175 40.498 24.5649 40.662 24.6954 40.8391C23.2454 41.9791 22.6954 43.6391 22.1854 45.3091C21.8354 46.3691 22.0654 46.9691 23.1854 47.0491C23.8118 47.068 24.4147 47.2912 24.9022 47.6849C25.3898 48.0785 25.7351 48.6208 25.8854 49.2291C26.0605 49.9052 26.3939 50.5299 26.8582 51.0515C27.3225 51.5732 27.9043 51.9769 28.5554 52.2291C29.1249 52.5055 29.7605 52.6164 30.3899 52.5492C31.0193 52.482 31.6171 52.2395 32.1154 51.8492C33.0454 50.9892 32.4454 49.9291 32.1154 48.9791C31.9454 48.5591 31.7354 48.1692 31.5854 47.7392C30.9391 46.3553 30.6404 44.8346 30.7154 43.3091C31.8154 43.6591 33.1954 43.3091 33.9354 44.5591C34.8015 45.9303 35.4745 47.4142 35.9354 48.9691C36.1534 49.6214 36.2383 50.3108 36.185 50.9965C36.1318 51.6821 35.9414 52.3501 35.6253 52.9609C35.3092 53.5717 34.8737 54.1128 34.3447 54.5522C33.8157 54.9917 33.2038 55.3205 32.5454 55.5191C31.4056 55.9287 30.1789 56.0355 28.9854 55.8291C30.1554 59.8291 33.8654 62.3992 38.3754 62.3492C42.8854 62.2992 46.8154 59.5891 47.7354 56.0191C43.3954 55.8191 40.9054 54.1191 40.7354 51.1091C40.5954 48.5691 41.8154 46.4091 43.0554 44.3291C43.6454 43.3291 44.9054 43.6591 45.8454 43.3291C45.9422 44.999 45.5973 46.665 44.8454 48.1591C44.6346 48.603 44.4541 49.0608 44.3054 49.5291C43.7554 51.2591 44.5154 52.3691 46.3054 52.4791C47.2311 52.6227 48.1771 52.4166 48.9591 51.9008C49.741 51.385 50.303 50.5966 50.5354 49.6891C50.7339 48.9713 51.1327 48.3248 51.6852 47.8253C52.2378 47.3259 52.9212 46.9942 53.6554 46.8691C54.4654 46.7291 54.6054 46.2691 54.4354 45.6391C54.0977 43.861 53.167 42.25 51.7954 41.0692H51.8254ZM26.0154 58.5891C25.8962 57.378 25.4949 56.2117 24.8437 55.1837C24.1925 54.1556 23.3095 53.2944 22.2654 52.6691C21.7224 52.2595 21.0607 52.0379 20.3804 52.0379C19.7002 52.0379 19.0385 52.2595 18.4954 52.6691C17.9187 53.1098 17.4947 53.7202 17.283 54.4144C17.0714 55.1086 17.0827 55.8517 17.3154 56.5392C17.6217 57.6918 18.1796 58.7623 18.949 59.6735C19.7185 60.5848 20.6804 61.3141 21.7654 61.8091C24.3354 63.0191 26.0154 61.9691 26.0154 58.5891Z" fill="white"/>
<path d="M33.2353 30.7491C33.3734 28.2222 33.7518 25.7143 34.3653 23.2591C34.5527 22.3502 35.0588 21.5382 35.7923 20.9698C36.5258 20.4013 37.4384 20.1138 38.3653 20.1591C39.2256 20.073 40.0897 20.2813 40.8163 20.75C41.5429 21.2186 42.089 21.9199 42.3653 22.7391C43.3443 25.7421 43.7943 28.8922 43.6953 32.0491C43.6353 34.7391 39.9653 36.6991 36.9253 35.8591C35.0153 35.3191 32.7853 33.6791 33.2353 30.7491Z" fill="white"/>
<path d="M47.0154 28.4392C46.9884 27.9362 47.0635 27.4329 47.2363 26.9597C47.4091 26.4864 47.676 26.0532 48.0208 25.6859C48.3656 25.3186 48.7813 25.025 49.2426 24.8228C49.704 24.6206 50.2016 24.5139 50.7054 24.5092C51.6951 24.4371 52.6782 24.7194 53.4788 25.3057C54.2794 25.892 54.8454 26.7439 55.0754 27.7092C55.2154 28.4392 55.0754 28.9792 54.3254 29.1992C53.5754 29.4192 53.0354 29.2992 52.7754 28.4192C52.6688 28.0248 52.4439 27.6724 52.131 27.4096C51.8182 27.1468 51.4323 26.9861 51.0254 26.9492C50.0954 26.8292 49.4054 27.0692 49.3854 28.1792C49.3904 28.2692 49.3904 28.3593 49.3854 28.4492C49.3154 29.2992 49.1654 30.1492 48.0454 30.0592C46.9254 29.9692 47.0154 29.0992 47.0154 28.4392Z" fill="white"/>
<path d="M30.0854 28.7492C30.0854 29.2092 29.9954 29.9492 29.0854 30.0392C28.1754 30.1292 27.7854 29.5092 27.7554 28.7092C27.7963 28.3018 27.6851 27.8937 27.4433 27.5633C27.2015 27.2329 26.8461 27.0035 26.4454 26.9192C25.4454 26.6892 24.7754 27.2892 24.2754 28.1292C23.9054 28.7492 23.6554 29.7092 22.6254 29.1892C21.5954 28.6692 21.8754 27.7692 22.1954 26.9592C22.5522 26.1037 23.195 25.3987 24.0139 24.9646C24.8329 24.5305 25.7772 24.3943 26.6854 24.5792C27.6625 24.7416 28.5469 25.2546 29.1728 26.0223C29.7987 26.7899 30.1232 27.7595 30.0854 28.7492Z" fill="white"/>
</svg>
