<svg width="52" height="55" viewBox="0 0 52 55" fill="none" xmlns="http://www.w3.org/2000/svg">
<g clip-path="url(#clip0_328_2)">
<path d="M26.5821 55L5.93921 45.368V19.4422H47.2293V45.368L26.5821 55Z" fill="#BABABA"/>
<path d="M26.5821 55V23.4515L5.93921 15.4807V45.368L26.5821 55Z" fill="#A9AAAA"/>
<path d="M5.93921 21.5817L26.5821 35.2404L47.2293 21.5817V19.4422H5.93921V21.5817Z" fill="#A9AAAA"/>
<path d="M26.582 30.3004L3.92566 19.7292V15.1546H49.2428V19.7292L26.582 30.3004Z" fill="#BABABA"/>
<path d="M26.582 25.7302L3.92566 15.1546L26.582 4.57898L49.2428 15.1546L26.582 25.7302Z" fill="#CCCCCC"/>
<path d="M21.4334 18.4899L17.6095 16.8548L30.9137 10.6452L34.7375 12.2802L21.4334 18.4899Z" fill="#A9AAAA"/>
<path d="M30.9137 11.9541L33.276 12.9629L34.7375 12.2802L30.9137 10.6452L17.6095 16.8548L19.0711 17.481L30.9137 11.9541Z" fill="#BABABA"/>
<path d="M19.6672 0C19.6672 0 20.0646 10.7321 17.8259 14.0631L26.582 16.0895L29.8363 14.5719C29.8363 14.5719 31.8454 5.00514 31.161 2.01336C31.1698 2.00901 22.1532 0.834915 19.6672 0Z" fill="white"/>
<path d="M26.582 16.0895L29.8363 14.5719C29.8363 14.5719 29.9555 14.0022 30.1233 13.1021C28.7986 13.9718 26.1493 15.0241 24.5376 15.6155L26.582 16.0895Z" fill="#E5E5E5"/>
<path d="M26.582 25.7302V30.3004L3.92566 19.7292V15.1546L26.582 25.7302Z" fill="#B2B2B2"/>
<path d="M9.68351 44.3244C9.68351 44.594 9.65701 44.8419 9.65701 45.0723C9.6576 45.3005 9.61259 45.5266 9.52455 45.7377C9.48445 45.8309 9.47071 45.9331 9.48481 46.0334C9.48481 46.1377 9.48481 46.2377 9.48481 46.3247C9.39478 46.4534 9.31223 46.5869 9.23754 46.7248C9.23691 46.8141 9.24729 46.9032 9.26845 46.99C9.28606 47.0776 9.28606 47.1677 9.26845 47.2553C9.15806 47.6119 9.06974 47.9641 8.99468 48.312C8.92348 48.6599 8.87043 49.0111 8.83572 49.3643C8.78172 49.6756 8.70348 49.9824 8.60169 50.2819C8.50455 50.5732 8.40741 50.8733 8.31909 51.1733C8.1374 51.3052 7.96616 51.4506 7.80688 51.6082C7.70092 51.5739 7.59126 51.5521 7.48014 51.5429L7.1004 51.5038C6.73349 51.5913 6.35364 51.6134 5.97883 51.569C5.57801 51.5297 5.17421 51.5297 4.77338 51.569C4.71299 51.4916 4.64495 51.4202 4.57027 51.3559C4.49487 51.2894 4.43467 51.2079 4.39364 51.1168C4.27383 50.9035 4.20016 50.6681 4.17727 50.4254C4.12618 49.8781 4.01817 49.3375 3.85494 48.8121C3.69144 48.2787 3.5907 47.7287 3.55468 47.1727C3.36052 46.7956 3.2506 46.3819 3.23234 45.9594C3.21329 45.5425 3.15864 45.128 3.06896 44.7201C3.06896 44.6331 3.03364 44.5549 3.01598 44.494C2.99601 44.4243 2.96785 44.3572 2.93208 44.294C2.79407 44.0094 2.70741 43.7033 2.67598 43.3895C2.64953 43.0861 2.66288 42.7806 2.71572 42.4806C2.66273 42.3415 2.61858 42.2154 2.58325 42.1067C2.54793 41.9979 2.50819 41.8849 2.47286 41.7631C2.3836 41.1918 2.25675 40.6267 2.09312 40.0715C1.93093 39.5001 1.80557 38.9191 1.7178 38.3321C1.69806 38.2071 1.65622 38.0864 1.59416 37.9756C1.52753 37.8501 1.46855 37.7209 1.41753 37.5885C1.45286 37.4798 1.4926 37.3755 1.52792 37.2668C1.56325 37.158 1.59857 37.0363 1.6339 36.8928C1.56203 36.8014 1.4985 36.7039 1.44403 36.6014C1.39105 36.4927 1.32922 36.3797 1.25416 36.2536V35.4839C1.11242 35.1834 1.00005 34.8704 0.918577 34.5489C0.837388 34.2263 0.804658 33.8938 0.821434 33.5618C0.821982 33.4275 0.808668 33.2934 0.781695 33.1618C0.755202 33.04 0.72429 32.9052 0.688965 32.7617C0.72429 32.7095 0.759617 32.6617 0.794941 32.6182C0.829519 32.5757 0.866368 32.5351 0.905331 32.4964C1.14691 32.4625 1.39008 32.4408 1.6339 32.4312C1.86793 32.4312 2.14169 32.4008 2.44637 32.366L2.71572 32.4182C2.86143 32.4182 3.01156 32.379 3.15727 32.3486C3.30304 32.3231 3.45078 32.31 3.59883 32.3095C3.75468 32.3017 3.91053 32.325 4.05699 32.378C4.20344 32.4311 4.33748 32.5128 4.45104 32.6182C4.55715 32.7295 4.63739 32.8623 4.68619 33.0072C4.73499 33.1521 4.75118 33.3058 4.73364 33.4575C4.7148 33.6779 4.74185 33.8999 4.81312 34.1097C4.88925 34.3213 4.94398 34.5398 4.9765 34.762C4.9765 34.9055 5.01182 35.0316 5.02948 35.149C5.04715 35.2664 5.07806 35.3925 5.11338 35.536V35.6578C5.23876 36.0678 5.33322 36.4864 5.39598 36.9102C5.4578 37.345 5.51078 37.7799 5.54611 38.2147C5.54611 38.3713 5.59027 38.5365 5.62559 38.7061C5.66092 38.8757 5.70066 39.0757 5.73598 39.3062C5.81391 39.4231 5.87763 39.5486 5.92585 39.6802C5.95911 39.762 5.98569 39.8464 6.00533 39.9324C6.02669 40.027 6.05472 40.12 6.08922 40.2107H6.68092C6.81544 40.0135 6.89045 39.7828 6.89727 39.5454C6.89727 39.3309 6.88844 39.1352 6.87078 38.9583C6.95824 38.4947 7.07624 38.0371 7.22403 37.5885C7.36885 37.1535 7.4419 36.6984 7.4404 36.2405C7.43881 36.0468 7.48104 35.8552 7.56403 35.6796C7.64351 35.5056 7.7274 35.3273 7.82013 35.149C7.80283 35.0295 7.79398 34.9089 7.79364 34.7881C7.79313 34.6673 7.78428 34.5468 7.76715 34.4272C7.82013 34.2706 7.8687 34.1097 7.91286 33.9488C7.95702 33.7879 8.01 33.6314 8.06299 33.4705C8.13298 33.1484 8.28492 32.8492 8.50455 32.6008C8.72539 32.4604 8.99372 32.4119 9.25078 32.466C9.50688 32.5185 9.77274 32.5005 10.0191 32.4138C10.2613 32.3246 10.5213 32.2918 10.7786 32.3182C11.0401 32.3401 11.303 32.3401 11.5646 32.3182L11.8074 32.666C11.8813 32.7769 11.9624 32.883 12.0503 32.9835C12.0495 33.051 12.0584 33.1184 12.0768 33.1835C12.0858 33.2126 12.0881 33.2433 12.0835 33.2734C12.0789 33.3035 12.0675 33.3322 12.0503 33.3574C11.9418 33.5851 11.8731 33.8291 11.8471 34.0793C11.8199 34.3334 11.7606 34.5832 11.6705 34.8229C11.5999 35.0014 11.5683 35.1925 11.5778 35.3838C11.5871 35.582 11.5632 35.7804 11.5071 35.9709C11.3658 36.5753 11.2246 37.1798 11.0877 37.7842C10.9508 38.3887 10.8227 39.0018 10.6991 39.6236C10.624 39.9759 10.5666 40.3194 10.5225 40.6456C10.4783 40.9717 10.4165 41.3109 10.3458 41.6457C10.2531 42.111 10.1825 42.5719 10.1295 43.0329C10.0856 43.4918 9.93279 43.9342 9.68351 44.3244Z" fill="white"/>
<path d="M24.8953 41.7153C24.8515 41.8007 24.8146 41.8894 24.7849 41.9805C24.8124 42.1477 24.8676 42.3093 24.9482 42.4589C24.8383 42.8404 24.8112 43.2405 24.8688 43.633C24.8862 43.8333 24.8773 44.035 24.8423 44.2331C24.8025 44.4363 24.8303 44.6468 24.9217 44.8332C24.8864 44.9375 24.8511 45.0376 24.8114 45.1245C24.7773 45.209 24.7593 45.2989 24.7584 45.3898C24.7935 45.6973 24.7801 46.0082 24.7186 46.3117C24.6568 46.6204 24.6038 46.9379 24.5685 47.2553C24.5017 47.8041 24.3177 48.3328 24.0285 48.8064C23.7393 49.2801 23.3515 49.6881 22.8906 50.0036C22.7639 50.0932 22.643 50.1905 22.5285 50.2949L22.1355 50.6428C21.8832 50.6408 21.6381 50.7254 21.4423 50.882C21.2347 51.0429 21.0228 51.2037 20.8064 51.3603C20.5654 51.3969 20.3209 51.4057 20.0779 51.3864C19.833 51.3729 19.5894 51.4288 19.3758 51.5473C19.3532 51.5652 19.3262 51.577 19.2976 51.5815C19.2689 51.5861 19.2396 51.5833 19.2124 51.5734C19.1503 51.5576 19.0866 51.5488 19.0225 51.5473C18.9332 51.5344 18.8425 51.5344 18.7532 51.5473C18.6604 51.5473 18.5545 51.5473 18.4264 51.5473L18.0069 51.3864L17.5345 51.2298C17.4629 51.217 17.3896 51.217 17.3181 51.2298H17.1282L17.0178 51.1864L16.9119 51.1472C16.468 51.0112 16.0481 50.8088 15.6667 50.5471C15.2736 50.2806 14.9108 49.9729 14.5849 49.6296C14.4448 49.5093 14.3175 49.3753 14.2051 49.2295C14.1004 49.0987 14.0184 48.9518 13.9623 48.7947C13.8654 48.5039 13.7158 48.2328 13.5207 47.9945C13.4633 47.7989 13.4147 47.6119 13.3706 47.4336C13.3264 47.2553 13.2867 47.0814 13.2469 46.9031C13.2133 46.7722 13.1956 46.638 13.194 46.503V42.8503C13.1851 42.5475 13.1585 42.2455 13.1145 41.9458C13.1498 41.8197 13.1763 41.7196 13.194 41.637C13.2071 41.5578 13.2071 41.477 13.194 41.3978C13.194 41.3196 13.1719 41.2239 13.1542 41.1195C13.1257 40.9727 13.0889 40.8275 13.0438 40.6847C13.0825 40.5258 13.1105 40.3645 13.1277 40.202L13.1807 39.7237C13.1807 39.615 13.2116 39.5106 13.2205 39.4019C13.2336 39.2965 13.2336 39.1899 13.2205 39.0844C13.2024 38.9214 13.1714 38.76 13.1277 38.6018C13.0823 38.4462 13.0586 38.2853 13.0571 38.1234C13.0589 37.9616 13.0827 37.8007 13.1277 37.6451C13.171 37.4882 13.202 37.3283 13.2205 37.1667C13.2898 36.573 13.4837 35.9999 13.7901 35.4839C13.9181 35.2925 14.0329 35.1012 14.1433 34.9142C14.2541 34.7225 14.3796 34.5393 14.5186 34.3663C14.6879 34.1482 14.8787 33.9472 15.0882 33.7662C15.2957 33.5928 15.5358 33.4613 15.7947 33.3792C15.8091 33.3804 15.8235 33.3787 15.8372 33.3742C15.8509 33.3697 15.8635 33.3625 15.8742 33.3531C16.0958 33.1534 16.3598 33.0049 16.6469 32.9182C16.9203 32.8325 17.1862 32.7249 17.4417 32.5965L18.0511 32.5051C18.2424 32.479 18.4102 32.4486 18.5545 32.4138C18.9298 32.4486 19.2919 32.4747 19.6363 32.4921C19.9807 32.5095 20.3472 32.5356 20.7446 32.5704C21.1299 32.7252 21.5008 32.9129 21.8529 33.1313C22.2327 33.3632 22.6036 33.5937 22.9656 33.8227C23.0716 33.9662 23.1776 34.0967 23.2747 34.2098C23.3734 34.3265 23.478 34.4383 23.5882 34.5446C23.7764 34.7143 23.9359 34.9125 24.0607 35.1316C24.1798 35.3515 24.2745 35.5833 24.3433 35.8231L24.5597 36.4101C24.6303 36.6058 24.7142 36.845 24.8025 37.1276V39.8759C24.8004 39.9395 24.8157 40.0026 24.8467 40.0585C24.8733 40.1144 24.9043 40.1683 24.9394 40.2194C24.8916 40.3407 24.8547 40.4658 24.829 40.5934C24.8114 40.6998 24.8026 40.8074 24.8025 40.9152C24.8035 41.0345 24.8124 41.1536 24.829 41.2717C24.829 41.3544 24.8599 41.5196 24.8953 41.7153ZM17.5875 36.758C17.3977 37.025 17.2489 37.318 17.1459 37.6277C17.0591 37.9424 17 38.264 16.9693 38.5887C16.9918 38.6745 17.0198 38.7587 17.0532 38.8409C17.0886 38.9304 17.0886 39.0298 17.0532 39.1192C16.9957 39.4409 16.9868 39.7691 17.0267 40.0933C17.062 40.4171 17.062 40.7436 17.0267 41.0674C16.9874 41.2094 16.9637 41.3552 16.956 41.5022C16.945 41.6673 16.9229 41.8314 16.8898 41.9936C16.9593 42.0975 17.0004 42.2173 17.009 42.3415C17.0179 42.4703 17.0179 42.5996 17.009 42.7285C17.0001 42.8515 17.0001 42.9751 17.009 43.0981C17.0221 43.2225 17.0747 43.3396 17.1592 43.433C17.1238 43.8417 17.0929 44.2331 17.0664 44.6071C17.0399 44.981 17.0046 45.368 16.9693 45.7768C17.0046 45.9377 17.0532 46.1073 17.1062 46.2856C17.1592 46.4639 17.2121 46.6248 17.2695 46.7639C17.4859 46.9248 17.7111 47.0683 17.8789 47.1988C18.0467 47.3292 18.2586 47.4553 18.4573 47.5988H19.3405C19.5215 47.5119 19.6849 47.4249 19.8306 47.3466C19.9763 47.2683 20.1176 47.1901 20.2721 47.1205C20.3958 46.9596 20.5106 46.8074 20.6077 46.6856C20.7049 46.5639 20.802 46.3986 20.8947 46.2508V44.7897C20.8947 44.5984 20.8947 44.4027 20.9212 44.207C20.9477 44.0113 20.9212 43.8156 20.9212 43.6199C20.9212 43.4243 20.9433 43.2286 20.961 43.0329C20.9789 42.8407 20.9655 42.6469 20.9212 42.4589C20.8769 42.2707 20.8547 42.0781 20.855 41.8849V41.45C20.855 41.2181 20.855 40.9963 20.855 40.7847C20.855 40.5731 20.855 40.3513 20.855 40.1194C20.855 39.815 20.855 39.5149 20.855 39.2105C20.855 38.9062 20.8771 38.5974 20.8947 38.28C20.8418 38.1017 20.7799 37.9147 20.7181 37.719C20.6563 37.5233 20.5901 37.3276 20.515 37.132L20.356 36.9319L20.1927 36.7623C20.0116 36.671 19.8394 36.5927 19.676 36.5188C19.5127 36.4449 19.3625 36.3797 19.2345 36.3057C18.9355 36.269 18.632 36.3064 18.3514 36.4145C18.0887 36.5108 17.8334 36.6256 17.5875 36.758Z" fill="white"/>
<path d="M30.5516 36.9189C30.4669 36.73 30.3618 36.5507 30.2381 36.384C30.1044 36.26 29.9562 36.1519 29.7966 36.0622C29.6468 36.0652 29.4982 36.0886 29.355 36.1318C29.189 36.1747 29.0131 36.1609 28.8561 36.0927C28.7843 36.0656 28.7072 36.055 28.6307 36.0618C28.5541 36.0686 28.4802 36.0925 28.4145 36.1318C28.3312 36.1688 28.2409 36.1879 28.1496 36.1879C28.0582 36.1879 27.9679 36.1688 27.8846 36.1318C27.7212 36.1051 27.5558 36.092 27.3901 36.0927C27.2034 36.0823 27.0176 36.0605 26.8337 36.0274C26.7979 35.9923 26.7579 35.9616 26.7145 35.9361C26.6688 35.9103 26.6272 35.878 26.5909 35.8405C26.5202 35.7361 26.454 35.6448 26.401 35.5752C26.5988 34.6373 26.645 33.6746 26.5379 32.7226C26.5909 32.653 26.6483 32.5834 26.7145 32.5095L26.9176 32.2703C27.134 32.3225 27.3592 32.3877 27.5932 32.4573C27.7822 32.3516 27.9992 32.3046 28.2158 32.3225C28.4433 32.3431 28.669 32.3795 28.8914 32.4312C29.088 32.4659 29.2885 32.4747 29.4875 32.4573L30.0836 32.4051C30.2249 32.4051 30.3618 32.3616 30.4854 32.3355C30.6191 32.309 30.7552 32.2959 30.8916 32.2964C31.7394 32.2964 32.574 32.2964 33.3953 32.2964C34.2166 32.2964 35.0511 32.3095 35.8989 32.3355C36.0071 32.3529 36.1175 32.3529 36.2257 32.3355C36.3322 32.3182 36.44 32.3095 36.548 32.3095H37.7402C37.78 32.3519 37.8169 32.397 37.8506 32.4443C37.8904 32.5013 37.9347 32.5551 37.9831 32.6052C38.0624 32.6956 38.1529 32.7759 38.2524 32.8443C38.2454 32.8919 38.2454 32.9402 38.2524 32.9878C38.2561 33.0283 38.2561 33.0691 38.2524 33.1096C38.2524 33.414 38.2745 33.714 38.2524 34.0141C38.2436 34.3176 38.2569 34.6213 38.2922 34.9229C38.312 35.3746 38.168 35.8185 37.8859 36.1753C37.6337 36.2621 37.3633 36.2845 37.1 36.2405C36.8306 36.2014 36.5569 36.2014 36.2875 36.2405C36.033 36.2755 35.776 36.2886 35.5192 36.2796C35.2542 36.2796 34.9805 36.2796 34.6935 36.2796C34.6215 36.3676 34.5448 36.4518 34.4638 36.5319L34.2033 36.7884C34.2407 36.9191 34.2644 37.0531 34.274 37.1885C34.2807 37.295 34.2939 37.401 34.3137 37.5059C34.2419 38.3258 34.2154 39.1489 34.2342 39.9715L34.2872 42.3545C34.2872 43.1373 34.274 43.9156 34.2475 44.6897C34.2203 45.504 34.2513 46.3192 34.3402 47.1292C34.2823 47.292 34.2467 47.4616 34.2342 47.6336C34.2125 47.8382 34.2215 48.0448 34.2607 48.2468C34.296 48.4081 34.3094 48.5733 34.3005 48.7381C34.2914 48.9044 34.3047 49.0711 34.3402 49.2339C34.4109 49.549 34.4109 49.8755 34.3402 50.1905C34.3219 50.307 34.331 50.426 34.3667 50.5384C34.4047 50.6607 34.4328 50.7857 34.4506 50.9124C34.3642 51.03 34.2682 51.1406 34.1636 51.2429L33.881 51.5255C33.7076 51.6074 33.5169 51.6476 33.3246 51.6429C33.1549 51.6344 32.9871 51.6037 32.8257 51.5516C32.2663 51.3908 31.6694 51.4091 31.1213 51.6038C31.0497 51.6166 30.9764 51.6166 30.9049 51.6038C30.824 51.5991 30.7429 51.5991 30.662 51.6038C30.5738 51.3501 30.5001 51.0916 30.4413 50.8298C30.3884 50.5853 30.3794 50.3337 30.4148 50.0862C30.4148 49.9949 30.4457 49.8992 30.4589 49.7905C30.4692 49.6913 30.454 49.5911 30.4148 49.4991C30.3439 49.3142 30.3439 49.1101 30.4148 48.9251C30.4886 48.7425 30.5261 48.5477 30.5252 48.3511C30.4216 47.9872 30.3667 47.6115 30.3618 47.2336C30.3689 46.8215 30.4147 46.411 30.4987 46.0073C30.3567 45.775 30.2991 45.502 30.3353 45.2332L30.4413 44.4375C30.497 44.1502 30.497 43.8551 30.4413 43.5678C30.4045 43.4558 30.3779 43.3408 30.3618 43.2242C30.3433 43.1078 30.3524 42.9888 30.3883 42.8763C30.4631 42.6336 30.4722 42.3757 30.4148 42.1284C30.3613 41.8781 30.3907 41.6175 30.4987 41.3848C30.426 41.2836 30.3916 41.1605 30.4015 41.0369C30.4015 40.9152 30.4236 40.7934 30.4413 40.676C30.4629 40.5584 30.4732 40.439 30.4722 40.3194C30.4722 40.1986 30.4434 40.0795 30.3883 39.9715C30.4104 39.5718 30.4104 39.1711 30.3883 38.7714C30.3623 38.3673 30.4041 37.9618 30.5119 37.5712C30.5474 37.4828 30.5566 37.3862 30.5384 37.2929C30.5291 37.1681 30.5336 37.0427 30.5516 36.9189Z" fill="white"/>
<path d="M45.1627 43.9809C45.0327 43.8931 44.8788 43.8461 44.7212 43.8461C44.5724 43.8456 44.4241 43.8631 44.2796 43.8982C44.1439 44.1456 44.0316 44.4047 43.944 44.6723C43.8602 44.9228 43.8097 45.183 43.7939 45.4463C43.7776 45.7364 43.7864 46.0274 43.8204 46.316C43.8656 46.6759 43.9379 47.0321 44.0368 47.3814L44.2266 47.5162L44.4165 47.6467C44.6533 47.6858 44.8951 47.6858 45.1318 47.6467C45.3535 47.6103 45.5809 47.6585 45.7677 47.7815C46.336 47.6939 46.9102 47.6488 47.4854 47.6467C48.0766 47.6504 48.6668 47.6954 49.2516 47.7815C49.3251 47.7778 49.3979 47.7647 49.4679 47.7423C49.5653 47.7202 49.6665 47.7202 49.7638 47.7423C49.8502 47.755 49.938 47.755 50.0243 47.7423L50.2804 47.7032C50.4694 47.6481 50.6681 47.6332 50.8633 47.6597C51.0711 47.6994 51.2629 47.7976 51.4152 47.9424C51.4789 48.2653 51.56 48.5846 51.6581 48.899C51.6581 49.1339 51.6581 49.3339 51.6581 49.5426C51.667 49.7377 51.6537 49.9332 51.6183 50.1253C51.6017 50.3163 51.5616 50.5047 51.4991 50.6863C51.4369 50.8772 51.4369 51.0824 51.4991 51.2733C51.3004 51.3777 51.0929 51.4951 50.8765 51.6212C50.6562 51.5825 50.4334 51.5593 50.2098 51.5516C49.986 51.5516 49.7211 51.5299 49.415 51.4864C49.1064 51.578 48.7875 51.632 48.4656 51.6473C48.1043 51.6601 47.7444 51.5963 47.4103 51.4603C46.8821 51.6208 46.3185 51.6299 45.7853 51.4864L45.569 51.5386C45.4859 51.5597 45.4047 51.5873 45.3261 51.6212C45.2385 51.5836 45.1486 51.5517 45.0568 51.5255L44.73 51.4342C44.4875 51.5567 44.2188 51.6206 43.9463 51.6206C43.6737 51.6206 43.405 51.5567 43.1625 51.4342C42.759 51.574 42.3309 51.6317 41.904 51.6038C41.476 51.582 41.0471 51.582 40.6191 51.6038L40.1776 51.3907C40.0626 51.1847 39.9892 50.9588 39.9612 50.7254C39.9012 50.3908 39.8687 50.052 39.864 49.7122C39.864 49.3382 39.864 48.9469 39.8905 48.5294C39.917 48.112 39.9612 47.7162 40.0142 47.3423C39.9222 47.0392 39.8804 46.7235 39.8905 46.4073C39.8905 46.0899 39.8905 45.7768 39.8905 45.4768C39.9523 45.3727 39.9927 45.2578 40.0094 45.1384C40.026 45.019 40.0187 44.8976 39.9877 44.781C39.9216 44.5551 39.9216 44.3154 39.9877 44.0896C40.0034 43.971 39.9851 43.8505 39.9347 43.7417C39.8097 43.4295 39.7761 43.089 39.8376 42.7589C39.9028 42.4426 39.9353 42.1207 39.9347 41.7979C39.8952 41.5095 39.8716 41.2192 39.864 40.9282C39.8573 40.6336 39.899 40.3399 39.9877 40.0585C39.9347 39.8802 39.8861 39.7019 39.8508 39.5236V39.3932C39.9762 39.1026 40.0233 38.7851 39.9877 38.4713C39.9524 38.1626 39.917 37.8538 39.8773 37.5538C39.8596 37.3566 39.8508 37.174 39.8508 37.0058C39.8537 36.8181 39.8911 36.6325 39.9612 36.4579C39.9755 36.392 39.9755 36.3238 39.9612 36.2579C39.9526 36.1818 39.9393 36.1063 39.9215 36.0318C39.9184 35.9853 39.9032 35.9403 39.8773 35.9013C39.8668 35.8804 39.8613 35.8573 39.8613 35.8339C39.8613 35.8105 39.8668 35.7875 39.8773 35.7665C39.9691 35.4182 39.9797 35.054 39.9082 34.7011C39.8343 34.3509 39.8149 33.9917 39.8508 33.6358C39.8494 33.4107 39.873 33.1861 39.9215 32.9661C39.9784 32.7322 40.1176 32.5258 40.3144 32.3834C40.4496 32.3419 40.5943 32.3419 40.7295 32.3834C40.873 32.4289 41.0275 32.4289 41.1711 32.3834C41.3216 32.326 41.4821 32.298 41.6435 32.3008C41.819 32.3013 41.9913 32.3478 42.1425 32.4356C42.344 32.5052 42.5636 32.5052 42.7651 32.4356C43.1628 32.3119 43.5822 32.2704 43.997 32.3138C44.4033 32.3616 44.8227 32.4182 45.2555 32.4877L45.4586 32.4356C45.5459 32.4162 45.6316 32.39 45.7147 32.3573L45.9311 32.4095C46.0139 32.4296 46.0951 32.4558 46.1739 32.4877C46.5403 32.3812 46.9183 32.3184 47.2999 32.3008C47.7024 32.2876 48.1031 32.3603 48.4744 32.5138C48.8425 32.3754 49.2329 32.3032 49.6269 32.3008C50.0015 32.2994 50.3759 32.3183 50.7485 32.3573C50.9546 32.4278 51.1407 32.5456 51.2916 32.7008C51.4231 32.8544 51.5317 33.0257 51.6139 33.2096V35.4447C51.5793 35.5868 51.5305 35.7252 51.4682 35.8578C51.4041 35.9926 51.3158 36.1148 51.2077 36.2188C50.8983 36.2527 50.5873 36.2702 50.276 36.2709C49.9695 36.2697 49.6648 36.2257 49.3708 36.1405C49.1902 36.2092 49.0041 36.263 48.8144 36.3014C48.6186 36.3364 48.4167 36.3168 48.2316 36.2449C47.7031 36.0688 47.129 36.078 46.6066 36.2709C46.5237 36.2376 46.4381 36.2114 46.3505 36.1927L46.0414 36.1144C45.8314 36.1865 45.6136 36.2347 45.3924 36.2579C45.1398 36.28 44.8879 36.2087 44.6859 36.0579C44.5799 36.1144 44.4739 36.1622 44.3768 36.2057C44.2796 36.2492 44.1737 36.3014 44.0633 36.3536C44.0103 36.5145 43.9529 36.6754 43.8911 36.845L43.6879 37.3668C43.7233 37.5059 43.7542 37.6407 43.7807 37.7668C43.8072 37.8929 43.8381 38.0147 43.8778 38.1365C43.8384 38.2996 43.8104 38.4653 43.7939 38.6322C43.7765 38.7954 43.7677 38.9594 43.7674 39.1236C43.7841 39.2728 43.8212 39.4191 43.8778 39.5584C43.9297 39.701 43.9739 39.8461 44.0103 39.9933C44.4583 40.1359 44.9391 40.145 45.3924 40.0194C45.697 40.0585 46.0105 40.0846 46.3241 40.102C46.6401 40.1201 46.957 40.0833 47.2602 39.9933C47.4315 39.9248 47.6215 39.9156 47.7989 39.9672C48.0367 40.0559 48.2913 40.093 48.5451 40.0759C48.7926 40.0587 49.0413 40.0674 49.2869 40.102C49.3339 40.1448 49.3841 40.184 49.437 40.2194C49.4988 40.2652 49.5578 40.3146 49.6137 40.3672C49.663 40.4165 49.7074 40.4704 49.7461 40.5281C49.7745 40.5706 49.8122 40.6063 49.8565 40.6325C49.8742 41.0413 49.8874 41.4196 49.8963 41.7675C49.8963 42.1154 49.9183 42.4545 49.936 42.7937C49.8297 43.0828 49.6695 43.3497 49.4635 43.5808C49.27 43.7865 49.0054 43.9136 48.7217 43.9374C48.0859 43.9026 47.4854 43.8808 46.9069 43.8721C46.3235 43.864 45.7404 43.9003 45.1627 43.9809Z" fill="white"/>
</g>
<defs>
<clipPath id="clip0_328_2">
<rect width="51" height="55" fill="white" transform="translate(0.702271)"/>
</clipPath>
</defs>
</svg>
