<svg width="37" height="38" viewBox="0 0 37 38" fill="none" xmlns="http://www.w3.org/2000/svg">
<path d="M18.47 0.514102C22.1234 0.514102 25.6948 1.59761 28.7324 3.62757C31.77 5.65752 34.1374 8.54274 35.535 11.9183C36.9327 15.2938 37.2979 19.008 36.5844 22.5911C35.8709 26.1742 34.1108 29.4652 31.5267 32.0479C28.9427 34.6306 25.6507 36.3889 22.0672 37.1005C18.4837 37.812 14.7697 37.4448 11.3949 36.0453C8.02012 34.6458 5.13622 32.2769 3.10791 29.2382C1.07961 26.1995 -0.00197534 22.6276 2.7083e-06 18.9741C2.35248e-06 16.5491 0.477834 14.1478 1.40616 11.9075C2.33449 9.66715 3.69511 7.63166 5.41034 5.91736C7.12557 4.20306 9.16177 2.84356 11.4026 1.91645C13.6434 0.989332 16.045 0.512788 18.47 0.514102Z" fill="#EDB70D"/>
<path d="M13.6899 16.994L16.49 14.204L17.08 13.614L18.47 12.224L23.23 16.994L26 14.204L18.47 6.664L10.9199 14.204L13.6899 16.994Z" fill="white"/>
<path d="M18.4733 16.181L15.6943 18.9599L18.4733 21.7389L21.2522 18.9599L18.4733 16.181Z" fill="white"/>
<path d="M23.23 20.9643L18.47 25.7243L16.7999 24.0543L16.49 23.7443L13.6899 20.9643L10.9199 23.7343L18.47 31.2843L26 23.7343L23.23 20.9643Z" fill="white"/>
<path d="M8.9342 16.1937L6.15527 18.9726L8.9342 21.7515L11.7131 18.9726L8.9342 16.1937Z" fill="white"/>
<path d="M27.9918 16.2064L25.2129 18.9853L27.9918 21.7642L30.7707 18.9853L27.9918 16.2064Z" fill="white"/>
</svg>
