<svg width="45" height="45" viewBox="0 0 45 45" fill="none" xmlns="http://www.w3.org/2000/svg">
<path d="M40.1599 26.8993C42.4667 16.9629 36.2817 7.03778 26.3452 4.73098C16.4088 2.42418 6.48362 8.60923 4.17682 18.5457C1.87002 28.4821 8.05511 38.4072 17.9916 40.714C27.928 43.0208 37.8531 36.8358 40.1599 26.8993Z" fill="#627EE8"/>
<path d="M22.7393 8.91071V19.1508L31.3993 23.0208L22.7393 8.91071Z" fill="white" fill-opacity="0.6"/>
<path d="M22.7389 8.91071L14.0889 23.0208L22.7389 19.1508V8.91071Z" fill="white"/>
<path d="M22.7393 29.6505V36.6505L31.3993 24.6505L22.7393 29.6505Z" fill="white" fill-opacity="0.6"/>
<path d="M22.7389 36.6104V29.6104L14.0889 24.6104L22.7389 36.6104Z" fill="white"/>
<path d="M22.7393 28.0407L31.3993 23.0407L22.7393 19.1807V28.0407Z" fill="white" fill-opacity="0.2"/>
<path d="M14.0889 23.0207L22.7389 28.0207V19.1407L14.0889 23.0207Z" fill="white" fill-opacity="0.6"/>
</svg>
