<svg width="15" height="16" viewBox="0 0 15 16" fill="none" xmlns="http://www.w3.org/2000/svg">
<path d="M7.70535 15.0597C5.69172 15.0597 3.97987 14.3547 2.56978 12.9446C1.16031 11.5351 0.455566 9.82359 0.455566 7.80996C0.455566 6.31771 0.882398 4.9475 1.73606 3.69933C2.58972 2.45116 3.80104 1.55339 5.37001 1.00604C5.55488 0.941392 5.71679 0.924475 5.85575 0.955287C5.99531 0.985494 6.1104 1.04561 6.20102 1.13563C6.29164 1.22564 6.34934 1.34043 6.37411 1.47999C6.39948 1.62076 6.38075 1.76847 6.31792 1.92313C6.20072 2.21131 6.11553 2.50312 6.06237 2.79854C6.0092 3.09397 5.98292 3.40511 5.98353 3.73195C5.98353 5.34322 6.5472 6.71252 7.67454 7.83986C8.80248 8.96781 10.1721 9.53178 11.7834 9.53178C12.205 9.53178 12.5911 9.48707 12.9415 9.39766C13.2919 9.30825 13.5901 9.23575 13.8359 9.18017C13.967 9.156 14.0879 9.15902 14.1984 9.18923C14.3072 9.22004 14.3939 9.27321 14.4585 9.34873C14.5304 9.42424 14.5787 9.51728 14.6035 9.62784C14.6289 9.7378 14.6147 9.86376 14.5609 10.0057C14.129 11.4859 13.2822 12.6984 12.0208 13.6433C10.7599 14.5876 9.32145 15.0597 7.70535 15.0597ZM7.70535 14.1535C9.03448 14.1535 10.2277 13.7871 11.2849 13.0543C12.3422 12.3214 13.1125 11.3663 13.5958 10.1888C13.2937 10.2643 12.9917 10.3247 12.6896 10.37C12.3875 10.4153 12.0854 10.438 11.7834 10.438C9.9256 10.438 8.34333 9.78492 7.03656 8.47875C5.72978 7.17258 5.0767 5.59032 5.0773 3.73195C5.0773 3.42988 5.09996 3.12781 5.14527 2.82573C5.19058 2.52366 5.251 2.22158 5.32651 1.91951C4.14842 2.40283 3.19296 3.17312 2.46013 4.23038C1.7273 5.28764 1.36119 6.48083 1.36179 7.80996C1.36179 9.56199 1.98104 11.0573 3.21955 12.2958C4.45805 13.5343 5.95332 14.1535 7.70535 14.1535Z" fill="white"/>
</svg>
