<svg width="15" height="14" viewBox="0 0 15 14" fill="none" xmlns="http://www.w3.org/2000/svg">
<g clip-path="url(#clip0_246_484)">
<path d="M1.32015 7.58417C1.15487 7.58417 1.01643 7.52817 0.904816 7.41617C0.793205 7.30417 0.737205 7.16572 0.736816 7.00083C0.736816 6.83556 0.792816 6.69711 0.904816 6.5855C1.01682 6.47389 1.15526 6.41789 1.32015 6.4175H2.48682C2.65209 6.4175 2.79073 6.4735 2.90273 6.5855C3.01473 6.6975 3.07054 6.83595 3.07015 7.00083C3.07015 7.16611 3.01415 7.30475 2.90215 7.41675C2.79015 7.52875 2.65171 7.58456 2.48682 7.58417H1.32015ZM11.8202 7.58417C11.6549 7.58417 11.5164 7.52817 11.4048 7.41617C11.2932 7.30417 11.2372 7.16572 11.2368 7.00083C11.2368 6.83556 11.2928 6.69711 11.4048 6.5855C11.5168 6.47389 11.6553 6.41789 11.8202 6.4175H12.9868C13.1521 6.4175 13.2907 6.4735 13.4027 6.5855C13.5147 6.6975 13.5705 6.83595 13.5702 7.00083C13.5702 7.16611 13.5142 7.30475 13.4022 7.41675C13.2902 7.52875 13.1517 7.58456 12.9868 7.58417H11.8202ZM7.15348 2.9175C6.98821 2.9175 6.84976 2.8615 6.73815 2.7495C6.62654 2.6375 6.57054 2.49906 6.57015 2.33417V1.1675C6.57015 1.00222 6.62615 0.863779 6.73815 0.752167C6.85015 0.640556 6.98859 0.584556 7.15348 0.584167C7.31876 0.584167 7.4574 0.640167 7.5694 0.752167C7.6814 0.864167 7.73721 1.00261 7.73682 1.1675V2.33417C7.73682 2.49945 7.68082 2.63808 7.56882 2.75008C7.45682 2.86208 7.31837 2.91789 7.15348 2.9175ZM7.15348 13.4175C6.98821 13.4175 6.84976 13.3615 6.73815 13.2495C6.62654 13.1375 6.57054 12.9991 6.57015 12.8342V11.6675C6.57015 11.5022 6.62615 11.3638 6.73815 11.2522C6.85015 11.1406 6.98859 11.0846 7.15348 11.0842C7.31876 11.0842 7.4574 11.1402 7.5694 11.2522C7.6814 11.3642 7.73721 11.5026 7.73682 11.6675V12.8342C7.73682 12.9994 7.68082 13.1381 7.56882 13.2501C7.45682 13.3621 7.31837 13.4179 7.15348 13.4175ZM3.44932 4.11333L2.82223 3.50083C2.70557 3.39389 2.64957 3.25778 2.65423 3.0925C2.6589 2.92722 2.7149 2.78625 2.82223 2.66958C2.9389 2.55292 3.07987 2.49458 3.24515 2.49458C3.41043 2.49458 3.54654 2.55292 3.65348 2.66958L4.26598 3.29667C4.37293 3.41333 4.4264 3.54945 4.4264 3.705C4.4264 3.86056 4.37293 3.99667 4.26598 4.11333C4.15904 4.23 4.02546 4.286 3.86523 4.28133C3.70501 4.27667 3.56637 4.22067 3.44932 4.11333ZM10.6535 11.3321L10.041 10.705C9.93404 10.5883 9.88057 10.4499 9.88057 10.2897C9.88057 10.1294 9.93404 9.99567 10.041 9.88834C10.1479 9.77167 10.2817 9.71586 10.4423 9.72092C10.6029 9.72597 10.7414 9.78178 10.8577 9.88834L11.4847 10.5008C11.6014 10.6078 11.6574 10.7439 11.6527 10.9092C11.6481 11.0744 11.5921 11.2154 11.4847 11.3321C11.3681 11.4488 11.2271 11.5071 11.0618 11.5071C10.8965 11.5071 10.7604 11.4488 10.6535 11.3321ZM10.041 4.11333C9.92432 4.00639 9.86832 3.87281 9.87298 3.71258C9.87765 3.55236 9.93365 3.41372 10.041 3.29667L10.6535 2.66958C10.7604 2.55292 10.8965 2.49692 11.0618 2.50158C11.2271 2.50625 11.3681 2.56225 11.4847 2.66958C11.6014 2.78625 11.6597 2.92722 11.6597 3.0925C11.6597 3.25778 11.6014 3.39389 11.4847 3.50083L10.8577 4.11333C10.741 4.22028 10.6049 4.27375 10.4493 4.27375C10.2938 4.27375 10.1577 4.22028 10.041 4.11333ZM2.82223 11.3321C2.70557 11.2154 2.64723 11.0744 2.64723 10.9092C2.64723 10.7439 2.70557 10.6078 2.82223 10.5008L3.44932 9.88834C3.56598 9.78139 3.70443 9.72792 3.86465 9.72792C4.02487 9.72792 4.15865 9.78139 4.26598 9.88834C4.38265 9.99528 4.43865 10.1291 4.43398 10.2897C4.42932 10.4503 4.37332 10.5887 4.26598 10.705L3.65348 11.3321C3.54654 11.4488 3.41043 11.5048 3.24515 11.5001C3.07987 11.4954 2.9389 11.4394 2.82223 11.3321Z" fill="#662D91"/>
</g>
<defs>
<clipPath id="clip0_246_484">
<rect width="14" height="14" fill="white" transform="translate(0.15332)"/>
</clipPath>
</defs>
</svg>
