<svg width="44" height="48" viewBox="0 0 44 48" fill="none" xmlns="http://www.w3.org/2000/svg">
<path d="M43.9531 23.454C43.7672 21.2464 43.2199 19.0843 42.3331 17.054C41.8912 16.055 41.366 15.095 40.7631 14.184C40.6131 13.954 40.4531 13.734 40.3031 13.514L40.0531 13.194C39.9754 13.0831 39.8919 12.9763 39.8031 12.874L39.5531 12.554L39.2831 12.254L39.0131 11.954L38.9431 11.874L38.8731 11.804L38.7331 11.6641C37.9958 10.8925 37.1928 10.1865 36.3331 9.55402C35.477 8.94108 34.5743 8.39608 33.6331 7.92401C31.7757 6.99868 29.7793 6.38392 27.7231 6.10406C29.6763 6.65165 31.5248 7.5201 33.1931 8.67401C34.0122 9.23361 34.7817 9.8626 35.4931 10.554C36.1967 11.2366 36.8392 11.9794 37.4131 12.774L37.5231 12.924V12.994V13.074L37.7231 13.374L37.9231 13.674L38.1131 13.9841L38.2931 14.304L38.4631 14.614C38.5731 14.834 38.6831 15.044 38.7831 15.264C39.1958 16.1257 39.5305 17.0226 39.7831 17.944C40.2845 19.7592 40.4871 21.6438 40.3831 23.524C40.2787 25.348 39.8627 27.1405 39.1531 28.824C38.4512 30.455 37.4697 31.9507 36.2531 33.244C35.0597 34.5132 33.6683 35.5804 32.1331 36.4041C31.2497 36.8694 30.3217 37.2446 29.3631 37.524L28.5831 34.144L18.4731 43.554L31.6731 47.554L30.8531 43.9841C32.4691 43.3289 33.9974 42.4757 35.4031 41.444C37.3058 40.0579 38.9679 38.3688 40.3231 36.444C41.6566 34.5387 42.6512 32.4176 43.2631 30.174C43.8758 27.99 44.1092 25.717 43.9531 23.454Z" fill="#CE9FF7"/>
<path d="M8.5528 37.5042C7.85243 36.8214 7.21334 36.0786 6.64283 35.2842L6.53284 35.1442L6.48279 35.0641V34.9941L6.28284 34.6841C6.21284 34.5841 6.14283 34.4842 6.08283 34.3842L5.89283 34.0742L5.71283 33.7642C5.65283 33.6542 5.59279 33.5542 5.54279 33.4442C5.49279 33.3342 5.31283 33.0141 5.21283 32.8041C4.80766 31.9393 4.47323 31.043 4.21283 30.1241C3.7067 28.3065 3.50394 26.4178 3.6128 24.5342C3.71403 22.7108 4.12669 20.9183 4.83283 19.2342C5.53714 17.6045 6.51826 16.1091 7.73279 14.8141C8.92942 13.547 10.3243 12.4831 11.8628 11.6642C12.7444 11.1923 13.6727 10.8136 14.6328 10.5342L15.4028 13.9142L25.5228 4.51416L12.2728 0.454163L13.0928 4.02417C11.4727 4.67696 9.94073 5.53026 8.53284 6.56415C6.63783 7.9558 4.97981 9.64417 3.62281 11.5641C2.28154 13.4649 1.28628 15.5875 0.682804 17.8342C0.105392 20.0345 -0.0940775 22.317 0.0928385 24.5842C0.285829 26.7917 0.836344 28.9533 1.72284 30.9842C2.15913 31.984 2.68107 32.9443 3.28284 33.8542C3.43284 34.0842 3.59281 34.3042 3.75281 34.5242L3.9928 34.8442L4.2428 35.1642L4.50281 35.4842L4.77283 35.7842L5.03284 36.0842L5.10285 36.1642L5.17279 36.2342L5.31281 36.3842C6.05634 37.15 6.86251 37.8524 7.72284 38.4842C10.2645 40.3198 13.2173 41.5043 16.3228 41.9341C14.3741 41.3877 12.5292 40.5227 10.8628 39.3741C10.0415 38.817 9.26876 38.1914 8.5528 37.5042Z" fill="#CE9FF7"/>
</svg>
