<svg width="52" height="55" viewBox="0 0 52 55" fill="none" xmlns="http://www.w3.org/2000/svg">
<g clip-path="url(#clip0_328_47)">
<path d="M26.7254 55L6.08252 45.368V19.4422H47.3727V45.368L26.7254 55Z" fill="#BABABA"/>
<path d="M26.7254 55V23.4515L6.08252 15.4807V45.368L26.7254 55Z" fill="#A9AAAA"/>
<path d="M6.08252 21.5817L26.7254 35.2404L47.3727 21.5817V19.4422H6.08252V21.5817Z" fill="#A9AAAA"/>
<path d="M26.7255 30.3004L4.06909 19.7292V15.1546H49.3862V19.7292L26.7255 30.3004Z" fill="#BABABA"/>
<path d="M26.7255 25.7302L4.06909 15.1546L26.7255 4.57898L49.3862 15.1546L26.7255 25.7302Z" fill="#CCCCCC"/>
<path d="M21.5768 18.4899L17.7529 16.8548L31.0571 10.6452L34.881 12.2802L21.5768 18.4899Z" fill="#A9AAAA"/>
<path d="M31.0571 11.9541L33.4194 12.9629L34.881 12.2802L31.0571 10.6452L17.7529 16.8548L19.2145 17.481L31.0571 11.9541Z" fill="#BABABA"/>
<path d="M19.8105 0C19.8105 0 20.2079 10.7321 17.9692 14.0631L26.7253 16.0895L29.9796 14.5719C29.9796 14.5719 31.9887 5.00514 31.3043 2.01336C31.3131 2.00901 22.2965 0.834915 19.8105 0Z" fill="white"/>
<path d="M26.7256 16.0895L29.9799 14.5719C29.9799 14.5719 30.0991 14.0022 30.2669 13.1021C28.9422 13.9718 26.2928 15.0241 24.6812 15.6155L26.7256 16.0895Z" fill="#E5E5E5"/>
<path d="M26.7255 25.7302V30.3004L4.06909 19.7292V15.1546L26.7255 25.7302Z" fill="#B2B2B2"/>
<path d="M9.82706 44.3244C9.82706 44.594 9.80057 44.8419 9.80057 45.0723C9.80116 45.3005 9.75614 45.5266 9.6681 45.7377C9.628 45.8309 9.61427 45.9331 9.62836 46.0334C9.62836 46.1377 9.62836 46.2377 9.62836 46.3247C9.53834 46.4534 9.45578 46.5869 9.38109 46.7248C9.38046 46.8141 9.39085 46.9032 9.412 46.99C9.42961 47.0776 9.42961 47.1677 9.412 47.2553C9.30161 47.6119 9.2133 47.9641 9.13823 48.312C9.06704 48.6599 9.01398 49.0111 8.97927 49.3643C8.92527 49.6756 8.84703 49.9824 8.74525 50.2819C8.6481 50.5732 8.55096 50.8733 8.46265 51.1733C8.28095 51.3052 8.10972 51.4506 7.95044 51.6082C7.84447 51.5739 7.73482 51.5521 7.62369 51.5429L7.24395 51.5038C6.87705 51.5913 6.4972 51.6134 6.12239 51.569C5.72156 51.5297 5.31776 51.5297 4.91693 51.569C4.85654 51.4916 4.78851 51.4202 4.71382 51.3559C4.63843 51.2894 4.57822 51.2079 4.53719 51.1168C4.41738 50.9035 4.34371 50.6681 4.32083 50.4254C4.26974 49.8781 4.16173 49.3375 3.99849 48.8121C3.835 48.2787 3.73425 47.7287 3.69824 47.1727C3.50407 46.7956 3.39416 46.3819 3.37589 45.9594C3.35684 45.5425 3.30219 45.128 3.21252 44.7201C3.21252 44.6331 3.1772 44.5549 3.15953 44.494C3.13956 44.4243 3.11141 44.3572 3.07564 44.294C2.93763 44.0094 2.85097 43.7033 2.81953 43.3895C2.79308 43.0861 2.80644 42.7806 2.85927 42.4806C2.80628 42.3415 2.76213 42.2154 2.72681 42.1067C2.69148 41.9979 2.65174 41.8849 2.61642 41.7631C2.52715 41.1918 2.4003 40.6267 2.23668 40.0715C2.07448 39.5001 1.94912 38.9191 1.86135 38.3321C1.84162 38.2071 1.79977 38.0864 1.73772 37.9756C1.67108 37.8501 1.6121 37.7209 1.56109 37.5885C1.59641 37.4798 1.63615 37.3755 1.67148 37.2668C1.7068 37.158 1.74213 37.0363 1.77745 36.8928C1.70559 36.8014 1.64205 36.7039 1.58759 36.6014C1.5346 36.4927 1.47278 36.3797 1.39771 36.2536V35.4839C1.25597 35.1834 1.1436 34.8704 1.06213 34.5489C0.980943 34.2263 0.948213 33.8938 0.964988 33.5618C0.965536 33.4275 0.952223 33.2934 0.92525 33.1618C0.898756 33.04 0.867844 32.9052 0.83252 32.7617C0.867844 32.7095 0.903171 32.6617 0.938496 32.6182C0.973074 32.5757 1.00992 32.5351 1.04889 32.4964C1.29046 32.4625 1.53363 32.4408 1.77745 32.4312C2.01148 32.4312 2.28524 32.4008 2.58992 32.366L2.85927 32.4182C3.00499 32.4182 3.15512 32.379 3.30083 32.3486C3.4466 32.3231 3.59433 32.31 3.74239 32.3095C3.89824 32.3017 4.05409 32.325 4.20054 32.378C4.347 32.4311 4.48104 32.5128 4.5946 32.6182C4.70071 32.7295 4.78094 32.8623 4.82974 33.0072C4.87854 33.1521 4.89474 33.3058 4.8772 33.4575C4.85836 33.6779 4.8854 33.8999 4.95667 34.1097C5.03281 34.3213 5.08754 34.5398 5.12005 34.762C5.12005 34.9055 5.15538 35.0316 5.17304 35.149C5.1907 35.2664 5.22161 35.3925 5.25694 35.536V35.6578C5.38232 36.0678 5.47677 36.4864 5.53953 36.9102C5.60135 37.345 5.65434 37.7799 5.68966 38.2147C5.68966 38.3713 5.73382 38.5365 5.76915 38.7061C5.80447 38.8757 5.84421 39.0757 5.87954 39.3062C5.95747 39.4231 6.02119 39.5486 6.0694 39.6802C6.10267 39.762 6.12925 39.8464 6.14889 39.9324C6.17025 40.027 6.19827 40.12 6.23278 40.2107H6.82447C6.95899 40.0135 7.03401 39.7828 7.04083 39.5454C7.04083 39.3309 7.032 39.1352 7.01434 38.9583C7.10179 38.4947 7.21979 38.0371 7.36759 37.5885C7.5124 37.1535 7.58545 36.6984 7.58395 36.2405C7.58236 36.0468 7.6246 35.8552 7.70759 35.6796C7.78707 35.5056 7.87096 35.3273 7.96369 35.149C7.94638 35.0295 7.93753 34.9089 7.93719 34.7881C7.93669 34.6673 7.92784 34.5468 7.9107 34.4272C7.96369 34.2706 8.01226 34.1097 8.05642 33.9488C8.10057 33.7879 8.15356 33.6314 8.20654 33.4705C8.27654 33.1484 8.42848 32.8492 8.6481 32.6008C8.86895 32.4604 9.13728 32.4119 9.39434 32.466C9.65044 32.5185 9.9163 32.5005 10.1627 32.4138C10.4049 32.3246 10.6649 32.2918 10.9221 32.3182C11.1837 32.3401 11.4466 32.3401 11.7081 32.3182L11.951 32.666C12.0248 32.7769 12.1059 32.883 12.1938 32.9835C12.193 33.051 12.202 33.1184 12.2203 33.1835C12.2293 33.2126 12.2316 33.2433 12.227 33.2734C12.2225 33.3035 12.2111 33.3322 12.1938 33.3574C12.0854 33.5851 12.0167 33.8291 11.9907 34.0793C11.9635 34.3334 11.9041 34.5832 11.8141 34.8229C11.7434 35.0014 11.7118 35.1925 11.7214 35.3838C11.7306 35.582 11.7068 35.7804 11.6507 35.9709C11.5094 36.5753 11.3681 37.1798 11.2312 37.7842C11.0943 38.3887 10.9663 39.0018 10.8426 39.6236C10.7676 39.9759 10.7102 40.3194 10.666 40.6456C10.6219 40.9717 10.56 41.3109 10.4894 41.6457C10.3967 42.111 10.326 42.5719 10.273 43.0329C10.2291 43.4918 10.0763 43.9342 9.82706 44.3244Z" fill="white"/>
<path d="M25.0387 41.7153C24.9949 41.8007 24.958 41.8894 24.9283 41.9805C24.9558 42.1477 25.011 42.3093 25.0917 42.4589C24.9817 42.8404 24.9546 43.2405 25.0122 43.633C25.0296 43.8333 25.0207 44.035 24.9857 44.2331C24.9459 44.4363 24.9738 44.6468 25.0652 44.8332C25.0299 44.9375 24.9945 45.0376 24.9548 45.1245C24.9207 45.209 24.9028 45.2989 24.9018 45.3898C24.937 45.6973 24.9236 46.0082 24.8621 46.3117C24.8003 46.6204 24.7473 46.9379 24.7119 47.2553C24.6452 47.8041 24.4611 48.3328 24.1719 48.8064C23.8827 49.2801 23.4949 49.6881 23.034 50.0036C22.9073 50.0932 22.7864 50.1905 22.6719 50.2949L22.2789 50.6428C22.0267 50.6408 21.7816 50.7254 21.5857 50.882C21.3782 51.0429 21.1662 51.2037 20.9499 51.3603C20.7089 51.3969 20.4643 51.4057 20.2213 51.3864C19.9765 51.3729 19.7329 51.4288 19.5192 51.5473C19.4966 51.5652 19.4696 51.577 19.441 51.5815C19.4124 51.5861 19.383 51.5833 19.3558 51.5734C19.2938 51.5576 19.2301 51.5488 19.166 51.5473C19.0767 51.5344 18.9859 51.5344 18.8966 51.5473C18.8039 51.5473 18.6979 51.5473 18.5699 51.5473L18.1504 51.3864L17.6779 51.2298C17.6064 51.217 17.5331 51.217 17.4615 51.2298H17.2717L17.1613 51.1864L17.0553 51.1472C16.6115 51.0112 16.1915 50.8088 15.8101 50.5471C15.417 50.2806 15.0543 49.9729 14.7283 49.6296C14.5882 49.5093 14.461 49.3753 14.3486 49.2295C14.2439 49.0987 14.1618 48.9518 14.1057 48.7947C14.0088 48.5039 13.8592 48.2328 13.6641 47.9945C13.6067 47.7989 13.5582 47.6119 13.514 47.4336C13.4699 47.2553 13.4301 47.0814 13.3904 46.9031C13.3568 46.7722 13.339 46.638 13.3374 46.503V42.8503C13.3285 42.5475 13.3019 42.2455 13.2579 41.9458C13.2932 41.8197 13.3197 41.7196 13.3374 41.637C13.3506 41.5578 13.3506 41.477 13.3374 41.3978C13.3374 41.3196 13.3153 41.2239 13.2976 41.1195C13.2692 40.9727 13.2323 40.8275 13.1873 40.6847C13.2259 40.5258 13.2539 40.3645 13.2712 40.202L13.3241 39.7237C13.3241 39.615 13.3551 39.5106 13.3639 39.4019C13.377 39.2965 13.377 39.1899 13.3639 39.0844C13.3458 38.9214 13.3148 38.76 13.2712 38.6018C13.2258 38.4462 13.202 38.2853 13.2005 38.1234C13.2023 37.9616 13.2261 37.8007 13.2712 37.6451C13.3144 37.4882 13.3454 37.3283 13.3639 37.1667C13.4332 36.573 13.6272 35.9999 13.9335 35.4839C14.0615 35.2925 14.1763 35.1012 14.2867 34.9142C14.3976 34.7225 14.523 34.5393 14.6621 34.3663C14.8313 34.1482 15.0221 33.9472 15.2317 33.7662C15.4391 33.5928 15.6792 33.4613 15.9382 33.3792C15.9525 33.3804 15.967 33.3787 15.9806 33.3742C15.9943 33.3697 16.0069 33.3625 16.0176 33.3531C16.2392 33.1534 16.5032 33.0049 16.7904 32.9182C17.0638 32.8325 17.3296 32.7249 17.5852 32.5965L18.1945 32.5051C18.3859 32.479 18.5537 32.4486 18.6979 32.4138C19.0732 32.4486 19.4353 32.4747 19.7797 32.4921C20.1241 32.5095 20.4906 32.5356 20.888 32.5704C21.2734 32.7252 21.6442 32.9129 21.9963 33.1313C22.3761 33.3632 22.747 33.5937 23.1091 33.8227C23.2151 33.9662 23.321 34.0967 23.4182 34.2098C23.5168 34.3265 23.6215 34.4383 23.7317 34.5446C23.9198 34.7143 24.0793 34.9125 24.2041 35.1316C24.3232 35.3515 24.418 35.5833 24.4867 35.8231L24.7031 36.4101C24.7737 36.6058 24.8577 36.845 24.946 37.1276V39.8759C24.9439 39.9395 24.9591 40.0026 24.9901 40.0585C25.0167 40.1144 25.0477 40.1683 25.0828 40.2194C25.0351 40.3407 24.9981 40.4658 24.9725 40.5934C24.9549 40.6998 24.946 40.8074 24.946 40.9152C24.9469 41.0345 24.9558 41.1536 24.9725 41.2717C24.9725 41.3544 25.0034 41.5196 25.0387 41.7153ZM17.7309 36.758C17.5411 37.025 17.3924 37.318 17.2893 37.6277C17.2026 37.9424 17.1435 38.264 17.1127 38.5887C17.1352 38.6745 17.1632 38.7587 17.1966 38.8409C17.2321 38.9304 17.2321 39.0298 17.1966 39.1192C17.1391 39.4409 17.1302 39.7691 17.1701 40.0933C17.2055 40.4171 17.2055 40.7436 17.1701 41.0674C17.1308 41.2094 17.1071 41.3552 17.0995 41.5022C17.0884 41.6673 17.0663 41.8314 17.0332 41.9936C17.1028 42.0975 17.1438 42.2173 17.1525 42.3415C17.1613 42.4703 17.1613 42.5996 17.1525 42.7285C17.1436 42.8515 17.1436 42.9751 17.1525 43.0981C17.1656 43.2225 17.2181 43.3396 17.3026 43.433C17.2673 43.8417 17.2363 44.2331 17.2099 44.6071C17.1834 44.981 17.148 45.368 17.1127 45.7768C17.148 45.9377 17.1966 46.1073 17.2496 46.2856C17.3026 46.4639 17.3556 46.6248 17.413 46.7639C17.6293 46.9248 17.8545 47.0683 18.0223 47.1988C18.1901 47.3292 18.4021 47.4553 18.6008 47.5988H19.4839C19.6649 47.5119 19.8283 47.4249 19.974 47.3466C20.1197 47.2683 20.261 47.1901 20.4156 47.1205C20.5392 46.9596 20.654 46.8074 20.7512 46.6856C20.8483 46.5639 20.9454 46.3986 21.0382 46.2508V44.7897C21.0382 44.5984 21.0382 44.4027 21.0647 44.207C21.0912 44.0113 21.0647 43.8156 21.0647 43.6199C21.0647 43.4243 21.0867 43.2286 21.1044 43.0329C21.1223 42.8407 21.1089 42.6469 21.0647 42.4589C21.0204 42.2707 20.9982 42.0781 20.9984 41.8849V41.45C20.9984 41.2181 20.9984 40.9963 20.9984 40.7847C20.9984 40.5731 20.9984 40.3513 20.9984 40.1194C20.9984 39.815 20.9984 39.5149 20.9984 39.2105C20.9984 38.9062 21.0205 38.5974 21.0382 38.28C20.9852 38.1017 20.9234 37.9147 20.8616 37.719C20.7997 37.5233 20.7335 37.3276 20.6584 37.132L20.4995 36.9319L20.3361 36.7623C20.1551 36.671 19.9828 36.5927 19.8195 36.5188C19.6561 36.4449 19.506 36.3797 19.3779 36.3057C19.0789 36.269 18.7754 36.3064 18.4948 36.4145C18.2321 36.5108 17.9768 36.6256 17.7309 36.758Z" fill="white"/>
<path d="M30.6951 36.9189C30.6104 36.73 30.5053 36.5507 30.3816 36.384C30.2478 36.26 30.0996 36.1519 29.94 36.0622C29.7903 36.0652 29.6417 36.0886 29.4985 36.1318C29.3324 36.1747 29.1565 36.1609 28.9995 36.0927C28.9277 36.0656 28.8506 36.055 28.7741 36.0618C28.6976 36.0686 28.6236 36.0925 28.5579 36.1318C28.4747 36.1688 28.3844 36.1879 28.293 36.1879C28.2017 36.1879 28.1113 36.1688 28.0281 36.1318C27.8646 36.1051 27.6992 36.092 27.5335 36.0927C27.3469 36.0823 27.1611 36.0605 26.9772 36.0274C26.9414 35.9923 26.9013 35.9616 26.8579 35.9361C26.8123 35.9103 26.7706 35.878 26.7343 35.8405C26.6637 35.7361 26.5974 35.6448 26.5444 35.5752C26.7422 34.6373 26.7884 33.6746 26.6813 32.7226C26.7343 32.653 26.7917 32.5834 26.8579 32.5095L27.061 32.2703C27.2774 32.3225 27.5026 32.3877 27.7366 32.4573C27.9256 32.3516 28.1426 32.3046 28.3592 32.3225C28.5867 32.3431 28.8125 32.3795 29.0348 32.4312C29.2315 32.4659 29.4319 32.4747 29.6309 32.4573L30.227 32.4051C30.3683 32.4051 30.5052 32.3616 30.6288 32.3355C30.7626 32.309 30.8987 32.2959 31.0351 32.2964C31.8829 32.2964 32.7174 32.2964 33.5387 32.2964C34.36 32.2964 35.1946 32.3095 36.0423 32.3355C36.1506 32.3529 36.2609 32.3529 36.3691 32.3355C36.4757 32.3182 36.5835 32.3095 36.6914 32.3095H37.8837C37.9234 32.3519 37.9603 32.397 37.994 32.4443C38.0338 32.5013 38.0781 32.5551 38.1265 32.6052C38.2059 32.6956 38.2963 32.7759 38.3959 32.8443C38.3889 32.8919 38.3889 32.9402 38.3959 32.9878C38.3995 33.0283 38.3995 33.0691 38.3959 33.1096C38.3959 33.414 38.4179 33.714 38.3959 34.0141C38.3871 34.3176 38.4003 34.6213 38.4356 34.9229C38.4554 35.3746 38.3114 35.8185 38.0294 36.1753C37.7772 36.2621 37.5068 36.2845 37.2434 36.2405C36.974 36.2014 36.7003 36.2014 36.4309 36.2405C36.1765 36.2755 35.9194 36.2886 35.6626 36.2796C35.3977 36.2796 35.1239 36.2796 34.8369 36.2796C34.7649 36.3676 34.6883 36.4518 34.6073 36.5319L34.3468 36.7884C34.3842 36.9191 34.4078 37.0531 34.4174 37.1885C34.4241 37.295 34.4374 37.401 34.4572 37.5059C34.3853 38.3258 34.3588 39.1489 34.3777 39.9715L34.4307 42.3545C34.4307 43.1373 34.4174 43.9156 34.3909 44.6897C34.3638 45.504 34.3948 46.3192 34.4836 47.1292C34.4258 47.292 34.3901 47.4616 34.3777 47.6336C34.356 47.8382 34.3649 48.0448 34.4042 48.2468C34.4395 48.4081 34.4528 48.5733 34.4439 48.7381C34.4348 48.9044 34.4482 49.0711 34.4836 49.2339C34.5543 49.549 34.5543 49.8755 34.4836 50.1905C34.4653 50.307 34.4744 50.426 34.5101 50.5384C34.5481 50.6607 34.5762 50.7857 34.594 50.9124C34.5076 51.03 34.4116 51.1406 34.307 51.2429L34.0244 51.5255C33.851 51.6074 33.6603 51.6476 33.4681 51.6429C33.2984 51.6344 33.1306 51.6037 32.9691 51.5516C32.4097 51.3908 31.8129 51.4091 31.2647 51.6038C31.1932 51.6166 31.1199 51.6166 31.0483 51.6038C30.9674 51.5991 30.8864 51.5991 30.8055 51.6038C30.7173 51.3501 30.6436 51.0916 30.5847 50.8298C30.5318 50.5853 30.5229 50.3337 30.5582 50.0862C30.5582 49.9949 30.5891 49.8992 30.6024 49.7905C30.6126 49.6913 30.5975 49.5911 30.5582 49.4991C30.4873 49.3142 30.4873 49.1101 30.5582 48.9251C30.6321 48.7425 30.6696 48.5477 30.6686 48.3511C30.565 47.9872 30.5101 47.6115 30.5052 47.2336C30.5123 46.8215 30.5581 46.411 30.6421 46.0073C30.5001 45.775 30.4425 45.502 30.4787 45.2332L30.5847 44.4375C30.6404 44.1502 30.6404 43.8551 30.5847 43.5678C30.5479 43.4558 30.5213 43.3408 30.5052 43.2242C30.4867 43.1078 30.4958 42.9888 30.5317 42.8763C30.6065 42.6336 30.6157 42.3757 30.5582 42.1284C30.5047 41.8781 30.5341 41.6175 30.6421 41.3848C30.5694 41.2836 30.5351 41.1605 30.545 41.0369C30.545 40.9152 30.567 40.7934 30.5847 40.676C30.6063 40.5584 30.6167 40.439 30.6156 40.3194C30.6156 40.1986 30.5869 40.0795 30.5317 39.9715C30.5539 39.5718 30.5539 39.1711 30.5317 38.7714C30.5057 38.3673 30.5475 37.9618 30.6553 37.5712C30.6909 37.4828 30.7 37.3862 30.6818 37.2929C30.6726 37.1681 30.677 37.0427 30.6951 36.9189Z" fill="white"/>
<path d="M45.3063 43.9809C45.1763 43.8931 45.0224 43.8461 44.8647 43.8461C44.7159 43.8456 44.5676 43.8631 44.4232 43.8982C44.2875 44.1456 44.1752 44.4047 44.0876 44.6723C44.0037 44.9228 43.9532 45.183 43.9375 45.4463C43.9211 45.7364 43.93 46.0274 43.964 46.316C44.0091 46.6759 44.0815 47.0321 44.1803 47.3814L44.3702 47.5162L44.5601 47.6467C44.7969 47.6858 45.0386 47.6858 45.2754 47.6467C45.497 47.6103 45.7244 47.6585 45.9112 47.7815C46.4795 47.6939 47.0537 47.6488 47.6289 47.6467C48.2201 47.6504 48.8104 47.6954 49.3951 47.7815C49.4687 47.7778 49.5414 47.7647 49.6115 47.7423C49.7088 47.7202 49.81 47.7202 49.9073 47.7423C49.9937 47.755 50.0815 47.755 50.1679 47.7423L50.424 47.7032C50.6129 47.6481 50.8116 47.6332 51.0068 47.6597C51.2147 47.6994 51.4064 47.7976 51.5588 47.9424C51.6225 48.2653 51.7035 48.5846 51.8016 48.899C51.8016 49.1339 51.8016 49.3339 51.8016 49.5426C51.8106 49.7377 51.7972 49.9332 51.7619 50.1253C51.7452 50.3163 51.7052 50.5047 51.6427 50.6863C51.5805 50.8772 51.5805 51.0824 51.6427 51.2733C51.444 51.3777 51.2364 51.4951 51.0201 51.6212C50.7998 51.5825 50.577 51.5593 50.3533 51.5516C50.1296 51.5516 49.8647 51.5299 49.5585 51.4864C49.2499 51.578 48.9311 51.632 48.6092 51.6473C48.2479 51.6601 47.888 51.5963 47.5538 51.4603C47.0257 51.6208 46.4621 51.6299 45.9289 51.4864L45.7125 51.5386C45.6295 51.5597 45.5483 51.5873 45.4697 51.6212C45.3821 51.5836 45.2921 51.5517 45.2003 51.5255L44.8736 51.4342C44.631 51.5567 44.3624 51.6206 44.0898 51.6206C43.8172 51.6206 43.5486 51.5567 43.306 51.4342C42.9025 51.574 42.4744 51.6317 42.0476 51.6038C41.6196 51.582 41.1907 51.582 40.7627 51.6038L40.3211 51.3907C40.2062 51.1847 40.1327 50.9588 40.1047 50.7254C40.0448 50.3908 40.0123 50.052 40.0076 49.7122C40.0076 49.3382 40.0076 48.9469 40.0341 48.5294C40.0606 48.112 40.1047 47.7162 40.1577 47.3423C40.0657 47.0392 40.024 46.7235 40.0341 46.4073C40.0341 46.0899 40.0341 45.7768 40.0341 45.4768C40.0959 45.3727 40.1363 45.2578 40.1529 45.1384C40.1696 45.019 40.1622 44.8976 40.1312 44.781C40.0651 44.5551 40.0651 44.3154 40.1312 44.0896C40.147 43.971 40.1286 43.8505 40.0783 43.7417C39.9533 43.4295 39.9196 43.089 39.9811 42.7589C40.0463 42.4426 40.0789 42.1207 40.0783 41.7979C40.0387 41.5095 40.0152 41.2192 40.0076 40.9282C40.0008 40.6336 40.0426 40.3399 40.1312 40.0585C40.0783 39.8802 40.0297 39.7019 39.9944 39.5236V39.3932C40.1198 39.1026 40.1669 38.7851 40.1312 38.4713C40.0959 38.1626 40.0606 37.8538 40.0208 37.5538C40.0032 37.3566 39.9944 37.174 39.9944 37.0058C39.9972 36.8181 40.0346 36.6325 40.1047 36.4579C40.1191 36.392 40.1191 36.3238 40.1047 36.2579C40.0962 36.1818 40.0829 36.1063 40.065 36.0318C40.062 35.9853 40.0468 35.9403 40.0208 35.9013C40.0103 35.8804 40.0049 35.8573 40.0049 35.8339C40.0049 35.8105 40.0103 35.7875 40.0208 35.7665C40.1127 35.4182 40.1233 35.054 40.0518 34.7011C39.9778 34.3509 39.9584 33.9917 39.9944 33.6358C39.9929 33.4107 40.0166 33.1861 40.065 32.9661C40.122 32.7322 40.2612 32.5258 40.458 32.3834C40.5931 32.3419 40.7379 32.3419 40.8731 32.3834C41.0166 32.4289 41.1711 32.4289 41.3146 32.3834C41.4652 32.326 41.6257 32.298 41.7871 32.3008C41.9626 32.3013 42.1348 32.3478 42.286 32.4356C42.4876 32.5052 42.7071 32.5052 42.9086 32.4356C43.3064 32.3119 43.7258 32.2704 44.1406 32.3138C44.5468 32.3616 44.9663 32.4182 45.399 32.4877L45.6022 32.4356C45.6895 32.4162 45.7751 32.39 45.8583 32.3573L46.0746 32.4095C46.1574 32.4296 46.2386 32.4558 46.3175 32.4877C46.6838 32.3812 47.0619 32.3184 47.4434 32.3008C47.846 32.2876 48.2466 32.3603 48.618 32.5138C48.9861 32.3754 49.3764 32.3032 49.7705 32.3008C50.1451 32.2994 50.5195 32.3183 50.892 32.3573C51.0981 32.4278 51.2843 32.5456 51.4351 32.7008C51.5667 32.8544 51.6752 33.0257 51.7575 33.2096V35.4447C51.7229 35.5868 51.6741 35.7252 51.6118 35.8578C51.5476 35.9926 51.4594 36.1148 51.3512 36.2188C51.0419 36.2527 50.7308 36.2702 50.4195 36.2709C50.1131 36.2697 49.8083 36.2257 49.5144 36.1405C49.3337 36.2092 49.1476 36.263 48.958 36.3014C48.7621 36.3364 48.5603 36.3168 48.3751 36.2449C47.8466 36.0688 47.2726 36.078 46.7502 36.2709C46.6673 36.2376 46.5816 36.2114 46.4941 36.1927L46.185 36.1144C45.9749 36.1865 45.7571 36.2347 45.5359 36.2579C45.2834 36.28 45.0315 36.2087 44.8294 36.0579C44.7235 36.1144 44.6175 36.1622 44.5203 36.2057C44.4232 36.2492 44.3172 36.3014 44.2068 36.3536C44.1538 36.5145 44.0964 36.6754 44.0346 36.845L43.8315 37.3668C43.8668 37.5059 43.8977 37.6407 43.9242 37.7668C43.9507 37.8929 43.9816 38.0147 44.0214 38.1365C43.982 38.2996 43.9539 38.4653 43.9375 38.6322C43.9201 38.7954 43.9112 38.9594 43.911 39.1236C43.9277 39.2728 43.9648 39.4191 44.0214 39.5584C44.0732 39.701 44.1175 39.8461 44.1538 39.9933C44.6019 40.1359 45.0827 40.145 45.5359 40.0194C45.8406 40.0585 46.1541 40.0846 46.4676 40.102C46.7837 40.1201 47.1006 40.0833 47.4037 39.9933C47.5751 39.9248 47.765 39.9156 47.9424 39.9672C48.1803 40.0559 48.4349 40.093 48.6886 40.0759C48.9362 40.0587 49.1848 40.0674 49.4305 40.102C49.4774 40.1448 49.5276 40.184 49.5806 40.2194C49.6424 40.2652 49.7013 40.3146 49.7572 40.3672C49.8066 40.4165 49.851 40.4704 49.8897 40.5281C49.9181 40.5706 49.9558 40.6063 50.0001 40.6325C50.0177 41.0413 50.031 41.4196 50.0398 41.7675C50.0398 42.1154 50.0619 42.4545 50.0795 42.7937C49.9733 43.0828 49.813 43.3497 49.6071 43.5808C49.4135 43.7865 49.149 43.9136 48.8653 43.9374C48.2294 43.9026 47.6289 43.8808 47.0505 43.8721C46.4671 43.864 45.884 43.9003 45.3063 43.9809Z" fill="white"/>
</g>
<defs>
<clipPath id="clip0_328_47">
<rect width="51" height="55" fill="white" transform="translate(0.845703)"/>
</clipPath>
</defs>
</svg>
